# xmcd
#
# Track frame offsets: 
#        150
#        14807
#        35981
#        49533
#        74024
#        88440
#        104929
#        125638
#        140105
#        156528
#        172851
#
# Disc length: 2530 seconds
#
# Revision: 0
# Processed by: cddbd v1.5.2PL0 Copyright (c) Steve Scherf et al.
# Submitted via: ExactAudioCopy v0.95a5
#
DISCID=b609e00b
DTITLE=Tracy McNeil - Room Where She Lives
DYEAR=2007
DGENRE=Acoustic
TTITLE0=Headlong Into Nothing
TTITLE1=Barroom Chair
TTITLE2=Weather Gage
TTITLE3=Wishbone
TTITLE4=Three Good Reasons
TTITLE5=Erie Lake
TTITLE6=Room Where She Lives
TTITLE7=Late Train
TTITLE8=Catastrophe
TTITLE9=Queen of the Night
TTITLE10=Same Old Rush
EXTD=
EXTT0=
EXTT1=
EXTT2=
EXTT3=
EXTT4=
EXTT5=
EXTT6=
EXTT7=
EXTT8=
EXTT9=
EXTT10=
PLAYORDER=
